<svg width="35" height="30" viewBox="0 0 35 30" fill="none" xmlns="http://www.w3.org/2000/svg">
<g clip-path="url(#clip0)">
<path d="M5.24992 4.5C5.24992 4.77612 4.98873 5 4.66659 5C4.34444 5 4.08325 4.77612 4.08325 4.5C4.08325 4.22388 4.34444 4 4.66659 4C4.98873 4 5.24992 4.22388 5.24992 4.5Z" fill="#BFA678"/>
<path d="M30.9167 4.5C30.9167 4.77612 30.6555 5 30.3333 5C30.0112 5 29.75 4.77612 29.75 4.5C29.75 4.22388 30.0112 4 30.3333 4C30.6555 4 30.9167 4.22388 30.9167 4.5Z" fill="#BFA678"/>
<path d="M12.8333 4V8.38208L13.7772 10H22.1666V5.90796C21.5642 6.10034 20.8866 5.98413 20.4166 5.60791C19.7572 6.12793 18.7426 6.12793 18.0833 5.60791C17.6933 5.92285 17.151 6.05835 16.6249 5.97241C16.6978 6.00904 16.7719 6.04248 16.8425 6.08301C17.9847 6.73023 18.6703 7.82642 18.6666 9H17.4999C17.5011 8.16138 17.0097 7.37842 16.1925 6.91699C15.7169 6.64331 15.1563 6.49805 14.5833 6.5C14.2611 6.5 13.9999 6.27613 13.9999 6V4C14.0013 3.86963 13.9407 3.74414 13.8319 3.65308C13.7242 3.55493 13.5738 3.49951 13.4166 3.5C13.0944 3.5 12.8333 3.72388 12.8333 4Z" fill="#BFA678"/>
<path d="M14 11H22.1667V14H14V11Z" fill="#BFA678"/>
<path d="M14 2.59106C14.6978 2.80151 15.1652 3.36597 15.1667 4V1H14.5833C14.2612 1 14 1.22388 14 1.5V2.59106Z" fill="#BFA678"/>
<path d="M14.5833 15H21.5833V26H14.5833V15Z" fill="#BFA678"/>
<path d="M15.71 5.63867C15.7541 5.64917 15.7974 5.66235 15.841 5.6748C15.8102 5.65381 15.7792 5.63281 15.7501 5.61035C15.7373 5.62036 15.7233 5.62866 15.71 5.63867Z" fill="#BFA678"/>
<path d="M16.9168 5C17.239 5 17.5002 4.77612 17.5002 4.5V1H16.3335V4.5C16.3335 4.77612 16.5947 5 16.9168 5Z" fill="#BFA678"/>
<path d="M23.9167 27.5C23.9167 27.2239 23.6555 27 23.3333 27H12.8333C12.5112 27 12.25 27.2239 12.25 27.5V29H23.9167V27.5Z" fill="#BFA678"/>
<path d="M21.5833 1H21V4.5C21 4.77612 21.2612 5 21.5833 5C21.9055 5 22.1667 4.77612 22.1667 4.5V1.5C22.1667 1.22388 21.9055 1 21.5833 1Z" fill="#BFA678"/>
<path d="M19.2501 5C19.5722 5 19.8334 4.77612 19.8334 4.5V1H18.6667V4.5C18.6667 4.77612 18.9279 5 19.2501 5Z" fill="#BFA678"/>
<path d="M6.31156 4C6.4517 4.32251 6.4517 4.67749 6.31156 5H11.6667V4H6.31156ZM28.6884 4H23.3333V5H28.6884C28.5483 4.67749 28.5483 4.32251 28.6884 4ZM31.9782 4C32.1184 4.32251 32.1184 4.67749 31.9782 5H33.8333V4H31.9782ZM34.965 15.335L31.0916 5.8501C30.613 6.05005 30.0536 6.05005 29.5751 5.8501L25.7017 15.335C25.6789 15.3877 25.667 15.4436 25.6667 15.5V17.5C25.6667 18.8799 27.7607 20 30.3333 20C32.9059 20 35 18.8799 35 17.5V15.5C34.9997 15.4436 34.9878 15.3877 34.965 15.335ZM33.8333 16H26.8333V15.585L30.3333 7.01489L33.8333 15.585V16ZM9.2983 15.335L5.42489 5.8501C4.94637 6.05005 4.38696 6.05005 3.90845 5.8501L0.0350342 15.335C0.0122477 15.3877 0.000284831 15.4436 0 15.5V17.5C0 18.8799 2.09408 20 4.66667 20C7.23926 20 9.33333 18.8799 9.33333 17.5V15.5C9.33305 15.4436 9.32108 15.3877 9.2983 15.335ZM8.16667 16H1.16667V15.585L4.66667 7.01489L8.16667 15.585V16ZM3.02177 4H1.16667V5H3.02177C2.88163 4.67749 2.88163 4.32251 3.02177 4Z" fill="#BFA678"/>
<path d="M14 11H22.1667V12.5H14V11Z" fill="#BFA678"/>
</g>
<defs>
<clipPath id="clip0">
<rect width="35" height="30" fill="white"/>
</clipPath>
</defs>
</svg>
