<svg width="30" height="30" viewBox="0 0 30 30" fill="none" xmlns="http://www.w3.org/2000/svg">
<path d="M15 4.83815C9.39677 4.83815 4.83871 9.39569 4.83871 14.9983C4.83871 20.6008 9.39677 25.1584 15 25.1584C20.6032 25.1584 25.1613 20.6008 25.1613 14.9983C25.1613 9.39569 20.6032 4.83815 15 4.83815ZM14.6407 13.851L15.9907 14.3161C17.1345 14.7104 17.9032 15.7887 17.9032 16.9988C17.9032 18.2483 17.0915 19.3103 15.9677 19.6882V20.5893C15.9677 21.124 15.5347 21.557 15 21.557C14.4653 21.557 14.0323 21.124 14.0323 20.5893V19.6882C12.9085 19.3103 12.0968 18.2483 12.0968 16.9988C12.0968 16.4642 12.5298 16.0312 13.0645 16.0312C13.5992 16.0312 14.0323 16.4642 14.0323 16.9988C14.0323 17.4966 14.4369 17.9012 14.9347 17.9012H15.0653C15.5631 17.9012 15.9677 17.4966 15.9677 16.9988C15.9677 16.6142 15.7234 16.2713 15.3593 16.1455L14.0093 15.6804C12.8655 15.2861 12.0968 14.2078 12.0968 12.9977C12.0968 11.7482 12.9085 10.6863 14.0323 10.3083V9.40718C14.0323 8.87256 14.4653 8.43955 15 8.43955C15.5347 8.43955 15.9677 8.87256 15.9677 9.40718V10.3083C17.0915 10.6863 17.9032 11.7482 17.9032 12.9977C17.9032 13.5323 17.4702 13.9653 16.9355 13.9653C16.4008 13.9653 15.9677 13.5323 15.9677 12.9977C15.9677 12.5 15.5631 12.0954 15.0653 12.0954H14.9347C14.4369 12.0954 14.0323 12.5 14.0323 12.9977C14.0323 13.3823 14.2766 13.7252 14.6407 13.851ZM15 4.83815C9.39677 4.83815 4.83871 9.39569 4.83871 14.9983C4.83871 20.6008 9.39677 25.1584 15 25.1584C20.6032 25.1584 25.1613 20.6008 25.1613 14.9983C25.1613 9.39569 20.6032 4.83815 15 4.83815ZM14.6407 13.851L15.9907 14.3161C17.1345 14.7104 17.9032 15.7887 17.9032 16.9988C17.9032 18.2483 17.0915 19.3103 15.9677 19.6882V20.5893C15.9677 21.124 15.5347 21.557 15 21.557C14.4653 21.557 14.0323 21.124 14.0323 20.5893V19.6882C12.9085 19.3103 12.0968 18.2483 12.0968 16.9988C12.0968 16.4642 12.5298 16.0312 13.0645 16.0312C13.5992 16.0312 14.0323 16.4642 14.0323 16.9988C14.0323 17.4966 14.4369 17.9012 14.9347 17.9012H15.0653C15.5631 17.9012 15.9677 17.4966 15.9677 16.9988C15.9677 16.6142 15.7234 16.2713 15.3593 16.1455L14.0093 15.6804C12.8655 15.2861 12.0968 14.2078 12.0968 12.9977C12.0968 11.7482 12.9085 10.6863 14.0323 10.3083V9.40718C14.0323 8.87256 14.4653 8.43955 15 8.43955C15.5347 8.43955 15.9677 8.87256 15.9677 9.40718V10.3083C17.0915 10.6863 17.9032 11.7482 17.9032 12.9977C17.9032 13.5323 17.4702 13.9653 16.9355 13.9653C16.4008 13.9653 15.9677 13.5323 15.9677 12.9977C15.9677 12.5 15.5631 12.0954 15.0653 12.0954H14.9347C14.4369 12.0954 14.0323 12.5 14.0323 12.9977C14.0323 13.3823 14.2766 13.7252 14.6407 13.851ZM15 0C6.71002 0 0 6.7084 0 14.9983C0 19.0042 1.56048 22.7707 4.39355 25.6035C10.2562 31.4656 19.7438 31.4654 25.6065 25.6035C28.4395 22.7707 30 19.0042 30 14.9983C30 6.70924 23.2908 0 15 0ZM15 27.0936C8.32984 27.0936 2.90323 21.6677 2.90323 14.9983C2.90323 8.32887 8.32984 2.90289 15 2.90289C21.6702 2.90289 27.0968 8.32887 27.0968 14.9983C27.0968 21.6677 21.6702 27.0936 15 27.0936ZM15 4.83815C9.39677 4.83815 4.83871 9.39569 4.83871 14.9983C4.83871 20.6008 9.39677 25.1584 15 25.1584C20.6032 25.1584 25.1613 20.6008 25.1613 14.9983C25.1613 9.39569 20.6032 4.83815 15 4.83815ZM14.6407 13.851L15.9907 14.3161C17.1345 14.7104 17.9032 15.7887 17.9032 16.9988C17.9032 18.2483 17.0915 19.3103 15.9677 19.6882V20.5893C15.9677 21.124 15.5347 21.557 15 21.557C14.4653 21.557 14.0323 21.124 14.0323 20.5893V19.6882C12.9085 19.3103 12.0968 18.2483 12.0968 16.9988C12.0968 16.4642 12.5298 16.0312 13.0645 16.0312C13.5992 16.0312 14.0323 16.4642 14.0323 16.9988C14.0323 17.4966 14.4369 17.9012 14.9347 17.9012H15.0653C15.5631 17.9012 15.9677 17.4966 15.9677 16.9988C15.9677 16.6142 15.7234 16.2713 15.3593 16.1455L14.0093 15.6804C12.8655 15.2861 12.0968 14.2078 12.0968 12.9977C12.0968 11.7482 12.9085 10.6863 14.0323 10.3083V9.40718C14.0323 8.87256 14.4653 8.43955 15 8.43955C15.5347 8.43955 15.9677 8.87256 15.9677 9.40718V10.3083C17.0915 10.6863 17.9032 11.7482 17.9032 12.9977C17.9032 13.5323 17.4702 13.9653 16.9355 13.9653C16.4008 13.9653 15.9677 13.5323 15.9677 12.9977C15.9677 12.5 15.5631 12.0954 15.0653 12.0954H14.9347C14.4369 12.0954 14.0323 12.5 14.0323 12.9977C14.0323 13.3823 14.2766 13.7252 14.6407 13.851ZM15 4.83815C9.39677 4.83815 4.83871 9.39569 4.83871 14.9983C4.83871 20.6008 9.39677 25.1584 15 25.1584C20.6032 25.1584 25.1613 20.6008 25.1613 14.9983C25.1613 9.39569 20.6032 4.83815 15 4.83815ZM14.6407 13.851L15.9907 14.3161C17.1345 14.7104 17.9032 15.7887 17.9032 16.9988C17.9032 18.2483 17.0915 19.3103 15.9677 19.6882V20.5893C15.9677 21.124 15.5347 21.557 15 21.557C14.4653 21.557 14.0323 21.124 14.0323 20.5893V19.6882C12.9085 19.3103 12.0968 18.2483 12.0968 16.9988C12.0968 16.4642 12.5298 16.0312 13.0645 16.0312C13.5992 16.0312 14.0323 16.4642 14.0323 16.9988C14.0323 17.4966 14.4369 17.9012 14.9347 17.9012H15.0653C15.5631 17.9012 15.9677 17.4966 15.9677 16.9988C15.9677 16.6142 15.7234 16.2713 15.3593 16.1455L14.0093 15.6804C12.8655 15.2861 12.0968 14.2078 12.0968 12.9977C12.0968 11.7482 12.9085 10.6863 14.0323 10.3083V9.40718C14.0323 8.87256 14.4653 8.43955 15 8.43955C15.5347 8.43955 15.9677 8.87256 15.9677 9.40718V10.3083C17.0915 10.6863 17.9032 11.7482 17.9032 12.9977C17.9032 13.5323 17.4702 13.9653 16.9355 13.9653C16.4008 13.9653 15.9677 13.5323 15.9677 12.9977C15.9677 12.5 15.5631 12.0954 15.0653 12.0954H14.9347C14.4369 12.0954 14.0323 12.5 14.0323 12.9977C14.0323 13.3823 14.2766 13.7252 14.6407 13.851ZM15 4.83815C9.39677 4.83815 4.83871 9.39569 4.83871 14.9983C4.83871 20.6008 9.39677 25.1584 15 25.1584C20.6032 25.1584 25.1613 20.6008 25.1613 14.9983C25.1613 9.39569 20.6032 4.83815 15 4.83815ZM14.6407 13.851L15.9907 14.3161C17.1345 14.7104 17.9032 15.7887 17.9032 16.9988C17.9032 18.2483 17.0915 19.3103 15.9677 19.6882V20.5893C15.9677 21.124 15.5347 21.557 15 21.557C14.4653 21.557 14.0323 21.124 14.0323 20.5893V19.6882C12.9085 19.3103 12.0968 18.2483 12.0968 16.9988C12.0968 16.4642 12.5298 16.0312 13.0645 16.0312C13.5992 16.0312 14.0323 16.4642 14.0323 16.9988C14.0323 17.4966 14.4369 17.9012 14.9347 17.9012H15.0653C15.5631 17.9012 15.9677 17.4966 15.9677 16.9988C15.9677 16.6142 15.7234 16.2713 15.3593 16.1455L14.0093 15.6804C12.8655 15.2861 12.0968 14.2078 12.0968 12.9977C12.0968 11.7482 12.9085 10.6863 14.0323 10.3083V9.40718C14.0323 8.87256 14.4653 8.43955 15 8.43955C15.5347 8.43955 15.9677 8.87256 15.9677 9.40718V10.3083C17.0915 10.6863 17.9032 11.7482 17.9032 12.9977C17.9032 13.5323 17.4702 13.9653 16.9355 13.9653C16.4008 13.9653 15.9677 13.5323 15.9677 12.9977C15.9677 12.5 15.5631 12.0954 15.0653 12.0954H14.9347C14.4369 12.0954 14.0323 12.5 14.0323 12.9977C14.0323 13.3823 14.2766 13.7252 14.6407 13.851Z" fill="#BFA678"/>
</svg>
