<svg width="32" height="32" viewBox="0 0 32 32" fill="none" xmlns="http://www.w3.org/2000/svg">
<path d="M30.8472 6.4H29.7649C30.3629 6.4 30.8472 5.92267 30.8472 5.33333C30.8472 4.744 30.3629 4.26667 29.7649 4.26667L22.6977 4.2672C22.1175 4.2672 21.6472 3.80373 21.6472 3.232V3.20533C21.6472 2.61067 22.1283 2.13333 22.7263 2.13333H25.4376C26.3344 2.13333 27.059 1.41707 27.059 0.533333C27.059 0.238933 26.8165 0 26.5178 0H22.9477C20.9107 0 18.9321 0.626133 17.2734 1.77493C17.3005 1.89067 17.3178 2.0096 17.3178 2.13333V11.4128C19.6633 12.3248 22.1613 12.8 24.6865 12.8H27.6002C28.1982 12.8 28.6825 12.3227 28.6825 11.7333C28.6825 11.144 28.1982 10.6667 27.6002 10.6667H29.7649C30.3629 10.6667 30.8472 10.1893 30.8472 9.6C30.8472 9.01067 30.3629 8.53333 29.7649 8.53333H30.8472C31.4452 8.53333 31.9296 8.056 31.9296 7.46667C31.9296 6.87733 31.4452 6.4 30.8472 6.4Z" fill="#BFA678"/>
<path d="M4.32959 2.66602H5.41194V11.1993H4.32959V2.66602Z" fill="#BFA678"/>
<path d="M0 2.66602H1.08235V11.1993H0V2.66602Z" fill="#BFA678"/>
<path d="M2.16479 2.66602H3.24715V11.1993H2.16479V2.66602Z" fill="#BFA678"/>
<path d="M8.65869 2.66602H9.74104V11.1993H8.65869V2.66602Z" fill="#BFA678"/>
<path d="M13.5295 12.2673H15.6942C15.9924 12.2673 16.2353 12.0278 16.2353 11.7339V2.13392C16.2353 1.84005 15.9924 1.60059 15.6942 1.60059H13.5295C13.2313 1.60059 12.9883 1.84005 12.9883 2.13392V11.7339C12.9883 12.0278 13.2313 12.2673 13.5295 12.2673Z" fill="#BFA678"/>
<path d="M6.4939 2.66602H7.57625V11.1993H6.4939V2.66602Z" fill="#BFA678"/>
<path d="M10.8235 2.66602H11.9058V11.1993H10.8235V2.66602Z" fill="#BFA678"/>
<path d="M11.9058 17.0663C11.9058 17.9485 12.6342 18.6663 13.5293 18.6663C12.6342 18.6663 11.9058 19.3842 11.9058 20.2663V20.8557C12.2516 20.6989 12.6131 20.5725 12.9881 20.4765V20.2663C12.9881 19.9725 13.2311 19.733 13.5293 19.733H15.694C15.9922 19.733 16.2352 19.9725 16.2352 20.2663V20.4706C16.608 20.565 16.9674 20.7026 17.3175 20.8605V20.2663C17.3175 19.3842 16.5891 18.6663 15.694 18.6663C16.5891 18.6663 17.3175 17.9485 17.3175 17.0663V15.9997C17.3175 15.1175 16.5891 14.3997 15.694 14.3997V13.333H13.5293V14.3997C12.6342 14.3997 11.9058 15.1175 11.9058 15.9997V17.0663ZM12.9881 15.9997C12.9881 15.7058 13.2311 15.4663 13.5293 15.4663L13.6814 15.4701C13.8697 15.7858 14.2133 15.9997 14.6116 15.9997C15.0159 15.9997 15.3639 15.7789 15.55 15.4551L15.694 15.4663C15.9922 15.4663 16.2352 15.7058 16.2352 15.9997V17.0663C16.2352 17.3602 15.9922 17.5997 15.694 17.5997L15.549 17.6082C15.3623 17.2861 15.0148 17.0663 14.6116 17.0663C14.2085 17.0663 13.861 17.2861 13.6749 17.6082L13.5293 17.5997C13.2311 17.5997 12.9881 17.3602 12.9881 17.0663V15.9997Z" fill="#BFA678"/>
<path d="M17.8585 22.933C17.3877 22.933 16.9862 23.2343 16.8395 23.6535C17.7833 24.333 18.3997 25.429 18.3997 26.6663C18.3997 28.725 16.7004 30.3997 14.6115 30.3997C12.5225 30.3997 10.8232 28.725 10.8232 26.6663C10.8232 24.6077 12.5225 22.933 14.6115 22.933C15.0579 22.933 15.4849 23.0135 15.8832 23.1538C16.1322 22.5911 16.61 22.1671 17.195 21.9789C16.4271 21.5671 15.5472 21.333 14.6115 21.333C11.6226 21.333 9.19971 23.7207 9.19971 26.6663C9.19971 29.6119 11.6226 31.9997 14.6115 31.9997C17.6004 31.9997 20.0232 29.6119 20.0232 26.6663C20.0232 25.2119 19.4312 23.8951 18.4733 22.933H17.8585Z" fill="#BFA678"/>
</svg>
