<svg width="31" height="26" viewBox="0 0 31 26" fill="none" xmlns="http://www.w3.org/2000/svg">
<path d="M28.8226 16.8855C28.4975 13.8615 26.7167 11.0801 23.9061 9.17394C23.9462 10.5218 23.9073 11.9142 23.9073 13.2671C23.9073 13.6877 23.5007 14.0288 22.9991 14.0288C22.4975 14.0288 22.0909 13.6877 22.0909 13.2671V9.25549C22.0909 8.37926 21.3004 7.64375 20.2769 7.54102C20.2769 10.5124 20.283 13.8763 20.283 16.8855H28.8226Z" fill="#BFA678"/>
<path d="M30.0918 18.4082H0.908203C0.408025 18.4082 0 18.7504 0 19.1699V20.998C0 21.4187 0.406633 21.7598 0.908203 21.7598H30.0918C30.5934 21.7598 31 21.4187 31 20.998V19.1699C31 18.7504 30.592 18.4082 30.0918 18.4082Z" fill="#BFA678"/>
<path d="M18.4667 6.72846C18.4667 5.36164 17.1297 4.24023 15.5 4.24023C13.8701 4.24023 12.5332 5.36153 12.5332 6.72846V16.8847H18.4667V6.72846Z" fill="#BFA678"/>
<path d="M10.7231 7.54004C9.69947 7.64277 8.90903 8.37823 8.90903 9.25452V13.2661C8.90903 13.6868 8.5024 14.0278 8.00083 14.0278C7.49926 14.0278 7.09262 13.6868 7.09262 13.2661C7.09262 11.9128 7.05545 10.5234 7.09383 9.17469C5.62812 10.1688 4.41778 11.4172 3.55844 12.8399C2.81341 14.0732 2.33225 15.4389 2.17725 16.8845H10.7169C10.7169 13.8752 10.7169 10.5114 10.7231 7.54004Z" fill="#BFA678"/>
</svg>
