<svg width="29" height="27" viewBox="0 0 29 27" fill="none" xmlns="http://www.w3.org/2000/svg">
<path d="M21.1499 0H7.85002C3.52145 0 0 3.27859 0 7.30864V19.6915C0 23.7214 3.52145 26.9999 7.85002 26.9999H21.1501C25.4785 26.9999 28.9999 23.7214 28.9999 19.6915V7.30864C28.9999 3.27859 25.4785 0 21.1499 0V0ZM14.5 20.8826C10.1276 20.8826 6.57052 17.5708 6.57052 13.5C6.57052 9.42914 10.1276 6.11738 14.5 6.11738C18.8724 6.11738 22.4294 9.42914 22.4294 13.5C22.4294 17.5708 18.8724 20.8826 14.5 20.8826ZM22.619 7.85844C21.3269 7.85844 20.276 6.87997 20.276 5.67697C20.276 4.47397 21.3269 3.49529 22.619 3.49529C23.9111 3.49529 24.9623 4.47397 24.9623 5.67697C24.9623 6.87997 23.9111 7.85844 22.619 7.85844Z" fill="#BFA678"/>
<path d="M14.4999 7.70117C11.0651 7.70117 8.27051 10.3029 8.27051 13.5009C8.27051 16.6988 11.0651 19.3007 14.4999 19.3007C17.9348 19.3007 20.7292 16.6988 20.7292 13.5009C20.7292 10.3029 17.9348 7.70117 14.4999 7.70117Z" fill="#BFA678"/>
<path d="M22.619 5.07812C22.2646 5.07812 21.9761 5.34674 21.9761 5.67674C21.9761 6.00674 22.2646 6.27536 22.619 6.27536C22.9737 6.27536 23.2622 6.00695 23.2622 5.67674C23.2622 5.34653 22.9737 5.07812 22.619 5.07812Z" fill="#BFA678"/>
</svg>
