<svg width="33" height="33" viewBox="0 0 33 33" fill="none" xmlns="http://www.w3.org/2000/svg">
<g clip-path="url(#clip0)">
<path d="M0.0324246 9.70209C0.109733 7.94867 0.393281 6.74321 0.799465 5.69867C1.21849 4.58991 1.86315 3.59724 2.70775 2.77203C3.53296 1.93397 4.53218 1.28277 5.62809 0.870287C6.67868 0.464103 7.87784 0.180554 9.63126 0.103246C11.3978 0.0193901 11.9586 0 16.4389 0C20.9193 0 21.4801 0.0193901 23.2401 0.0966986C24.9935 0.174007 26.1989 0.457807 27.2432 0.86374C28.3522 1.28277 29.3449 1.92742 30.1701 2.77203C31.0082 3.59724 31.6591 4.59646 32.0719 5.69237C32.478 6.74321 32.7616 7.94213 32.8389 9.69554C32.9227 11.4621 32.9421 12.0229 32.9421 16.5032C32.9421 20.9836 32.9227 21.5444 32.8454 23.3044C32.7681 25.0578 32.4843 26.2632 32.0781 27.3078C31.6591 28.4165 31.0082 29.4092 30.1701 30.2344C29.3449 31.0725 28.3457 31.7237 27.2498 32.1362C26.1989 32.5423 25 32.8259 23.2464 32.9032C21.4866 32.9808 20.9256 32.9999 16.4452 32.9999C11.9649 32.9999 11.4041 32.9808 9.6441 32.9032C7.89069 32.8259 6.68523 32.5423 5.64094 32.1362C3.42317 31.2787 1.66975 29.5253 0.812308 27.3078C0.406376 26.2569 0.122576 25.0578 0.0452674 23.3044C-0.032041 21.5444 -0.0514311 20.9836 -0.0514311 16.5032C-0.0514311 12.0229 -0.0448838 11.4621 0.0324246 9.70209ZM3.00414 23.1754C3.07515 24.7871 3.34586 25.6574 3.57149 26.2375C4.12599 27.6752 5.26699 28.8162 6.70462 29.3707C7.28481 29.5963 8.16139 29.867 9.76674 29.9378C11.5073 30.0153 12.0293 30.0345 16.4324 30.0345C20.8354 30.0345 21.364 30.0153 23.0983 29.9378C24.7099 29.867 25.5802 29.5963 26.1604 29.3707C26.8758 29.1063 27.527 28.6872 28.0556 28.1393C28.6036 27.6042 29.0226 26.9595 29.287 26.2441C29.5126 25.6639 29.7833 24.7871 29.8541 23.182C29.9316 21.4414 29.9508 20.9191 29.9508 16.5161C29.9508 12.113 29.9316 11.5844 29.8541 9.85041C29.7833 8.23877 29.5126 7.36848 29.287 6.78829C29.0226 6.07262 28.6036 5.42167 28.049 4.89285C27.5142 4.34489 26.8695 3.92586 26.1539 3.6617C25.5737 3.43607 24.6968 3.16537 23.0917 3.09435C21.3512 3.01705 20.8289 2.99766 16.4261 2.99766C12.0165 2.99766 11.4945 3.01705 9.76019 3.09435C8.14855 3.16537 7.27826 3.43607 6.69807 3.6617C5.98265 3.92586 5.33145 4.34489 4.80288 4.89285C4.25492 5.42796 3.8359 6.07262 3.57149 6.78829C3.34586 7.36848 3.07515 8.24506 3.00414 9.85041C2.92683 11.591 2.90744 12.113 2.90744 16.5161C2.90744 20.9191 2.92683 21.4349 3.00414 23.1754Z" fill="#BFA678"/>
<path d="M16.4388 8.02539C21.1188 8.02539 24.916 11.8223 24.916 16.5026C24.916 21.1829 21.1188 24.9799 16.4388 24.9799C11.7585 24.9799 7.96153 21.1829 7.96153 16.5026C7.96153 11.8223 11.7585 8.02539 16.4388 8.02539ZM16.4388 22.0016C19.475 22.0016 21.9377 19.5391 21.9377 16.5026C21.9377 13.4662 19.475 11.0037 16.4388 11.0037C13.4023 11.0037 10.9398 13.4662 10.9398 16.5026C10.9398 19.5391 13.4023 22.0016 16.4388 22.0016V22.0016Z" fill="#BFA678"/>
<path d="M5.64711 7.69097C5.64711 8.78386 6.53326 9.67002 7.62641 9.67002C8.71931 9.67002 9.60547 8.78386 9.60547 7.69097C9.60547 6.59782 8.71931 5.71191 7.62641 5.71191C6.53326 5.71191 5.64711 6.59782 5.64711 7.69097V7.69097Z" fill="#BFA678"/>
</g>
<defs>
<clipPath id="clip0">
<rect width="33" height="33" fill="white" transform="matrix(-1 0 0 1 33 0)"/>
</clipPath>
</defs>
</svg>
