<svg width="26" height="25" viewBox="0 0 26 25" fill="none" xmlns="http://www.w3.org/2000/svg">
<g clip-path="url(#clip0)">
<path d="M25.9936 24.9991V24.998H26.0001V15.8293C26.0001 11.3439 24.9959 7.88867 19.5424 7.88867C16.9207 7.88867 15.1614 9.272 14.4431 10.5835H14.3673V8.30742H9.19653V24.998H14.5807V16.7335C14.5807 14.5574 15.0097 12.4532 17.8123 12.4532C20.5737 12.4532 20.6149 14.9366 20.6149 16.873V24.9991H25.9936Z" fill="#BFA678"/>
<path d="M0.429199 8.30859H5.81987V24.9992H0.429199V8.30859Z" fill="#BFA678"/>
<path d="M3.12217 0C1.39858 0 0 1.34479 0 3.00208C0 4.65938 1.39858 6.03229 3.12217 6.03229C4.84575 6.03229 6.24433 4.65938 6.24433 3.00208C6.24325 1.34479 4.84467 0 3.12217 0V0Z" fill="#BFA678"/>
</g>
<defs>
<clipPath id="clip0">
<rect width="26" height="25" fill="white"/>
</clipPath>
</defs>
</svg>
