<svg width="115" height="70" viewBox="0 0 115 70" fill="none" xmlns="http://www.w3.org/2000/svg">
<path d="M56.1603 0.883682C55.6284 1.75949 55.6284 1.85333 56.129 2.60402C56.5357 3.2296 56.567 3.5111 56.2854 3.79261C56.0977 3.98029 55.9412 4.51203 55.9412 4.98121C55.9412 6.10725 55.4407 6.45132 53.2506 6.85794C52.2494 7.04562 49.9341 7.76503 48.1195 8.42188C44.2399 9.89199 42.8007 10.1422 40.9548 9.64176L39.6094 9.29769L40.2978 8.547C40.8609 7.9527 40.9235 7.70247 40.6419 7.17073C39.9223 5.85702 37.5132 6.16981 36.9501 7.63991C36.2617 9.42281 38.5144 10.9242 42.175 11.1431C44.3025 11.237 44.8344 11.1431 48.1195 9.98582C52.1868 8.547 54.7211 8.07782 55.4719 8.70339C55.8787 9.04746 55.9412 10.6427 55.9412 20.2453C55.91 26.3759 55.7848 31.9748 55.6597 32.7255C55.2216 34.8838 52.9377 36.8543 50.8102 36.8543C50.4035 36.8543 49.8403 37.042 49.59 37.2923C49.3084 37.605 48.1821 37.7614 45.992 37.8553C42.9259 37.9491 41.8621 38.2932 42.3001 39.0126C42.5504 39.3879 71.1467 39.513 71.397 39.1064C71.4596 38.9813 71.4283 38.6685 71.2719 38.4183C71.0528 38.0742 70.1455 37.9178 67.7051 37.8553C65.3586 37.7614 64.3261 37.605 64.0446 37.2923C63.8568 37.042 63.325 36.8543 62.8869 36.8543C61.5416 36.8543 59.4454 35.6345 58.6945 34.4146C57.9749 33.2573 57.9749 33.1322 57.881 21.2775C57.8185 11.8938 57.881 9.17257 58.1939 8.79723C58.7884 8.07782 61.1662 8.45316 65.4838 9.92327C68.2996 10.8929 69.6449 11.2057 71.178 11.2057C75.4643 11.2057 78.3427 8.64083 76.09 6.85794C75.0576 6.04469 74.3693 6.04469 73.4619 6.76411C72.7111 7.38968 72.7736 8.48444 73.5871 8.79723C74.1503 9.01618 75.214 7.92142 74.7447 7.60863C74.557 7.5148 74.4006 7.63991 74.4006 7.92142C74.4006 8.20293 74.2128 8.3906 74.0251 8.29677C73.3055 8.07782 73.5871 7.29585 74.4006 7.29585C75.5895 7.29585 75.4017 8.3906 74.0877 9.1413C72.273 10.2048 69.6136 9.98582 65.6402 8.45316C63.8256 7.76503 61.5103 7.04562 60.5091 6.85794C58.3191 6.45132 57.8185 6.10725 57.8185 4.98121C57.8185 4.51203 57.6933 4.01157 57.5056 3.82389C57.3179 3.63622 57.3179 3.16704 57.5682 2.54146C57.881 1.72821 57.8497 1.38414 57.5056 0.758568C56.9737 -0.273632 56.8173 -0.273632 56.1603 0.883682ZM40.1413 7.76503C40.1413 8.01526 39.9223 8.23421 39.672 8.23421C39.4217 8.23421 39.234 8.04654 39.2966 7.82759C39.3279 7.57735 39.234 7.48352 39.0463 7.60863C38.796 7.76503 38.8273 7.9527 39.0776 8.26549C39.2653 8.51572 39.3904 8.79723 39.2966 8.85979C38.9837 9.17257 38.358 8.07782 38.5457 7.57735C38.7647 6.95178 40.1413 7.10817 40.1413 7.76503Z" fill="white"/>
<path d="M32.4132 27.9706C35.0726 29.8473 40.6104 30.3478 44.3335 29.0653C48.6824 27.5639 48.4008 27.4701 39.6718 27.4701C32.2881 27.4701 31.7562 27.5014 32.4132 27.9706Z" fill="white"/>
<path d="M67.9863 28.4095C71.4905 30.0985 75.4326 30.2862 79.0932 28.9412C82.9415 27.5337 82.6912 27.4711 74.0873 27.5024L66.1091 27.5337L67.9863 28.4095Z" fill="white"/>
<path d="M25.7179 39.9206C24.967 40.4524 23.6843 42.4855 23.9033 42.8295C24.0284 43.0798 23.9971 43.1111 23.7781 42.9859C23.3088 42.7044 21.9009 45.5195 20.5556 49.4294C19.5544 52.3383 19.4292 52.4947 18.6158 52.4947C17.9275 52.4947 17.771 52.3696 17.8962 51.9317C18.428 50.1488 18.428 49.6483 17.9587 48.8976C16.8011 47.1148 15.1742 47.3024 14.3295 49.3355C14.1104 49.8673 13.7663 50.3052 13.5786 50.3052C13.078 50.3052 11.7014 51.8066 11.0756 53.0265C10.3873 54.3714 10.4499 55.6852 11.2008 56.4671C12.6087 57.9998 14.0479 57.5619 16.3944 54.8406C17.4582 53.652 18.1152 53.1203 18.6471 53.1203C19.3041 53.1203 19.3979 53.2141 19.2102 53.9648C19.1164 54.4653 18.9286 55.9041 18.8348 57.1865C18.6471 59.4386 18.6783 59.6263 19.4292 60.4708L20.2427 61.4092L21.4316 60.7836C22.2138 60.377 23.215 59.3135 24.3413 57.7183C25.9369 55.4349 26.0621 55.3411 26.2185 56.1231C26.5939 58.1875 28.3773 57.6557 30.0355 54.9657C30.5674 54.1212 31.0367 53.4331 31.068 53.4331C31.1306 53.4331 31.0993 54.3089 31.0054 55.3724C30.7238 58.9382 32.4446 59.5012 34.5095 56.5297C35.0414 55.7477 35.6672 55.1847 35.8862 55.2472C36.1052 55.3098 36.4181 55.1847 36.5745 54.9657C37.3567 53.6833 39.4842 50.9308 39.578 51.0559C39.6719 51.1184 39.5155 51.5251 39.2339 51.9317C38.9836 52.307 38.6707 53.2454 38.5456 53.9961C38.3891 55.0283 38.4517 55.4662 38.8897 55.9354C39.6719 56.8112 40.7982 56.7174 41.424 55.779C41.9871 54.9032 42.4877 54.7468 42.4877 55.4349C42.4877 55.6852 42.9257 56.2482 43.4889 56.7174C44.8655 57.8747 45.7103 57.5932 47.9942 55.1534C49.0267 54.0274 50.0905 53.1203 50.372 53.1203C51.0603 53.1203 51.8738 52.8075 51.8738 52.526C51.8738 52.4009 51.3732 52.3696 50.7162 52.4322C49.7776 52.5573 49.6211 52.4947 49.7776 52.0881C49.8714 51.8066 50.0592 51.0872 50.153 50.4929C50.3407 49.5232 50.2469 49.273 49.4334 48.4597C48.2758 47.2711 47.3998 47.4588 46.4612 49.0853C46.0857 49.7422 45.6164 50.3052 45.4287 50.3052C45.0532 50.3052 44.803 50.5554 42.6129 53.0577C41.9871 53.8084 41.0172 54.6842 40.5166 55.0596L39.578 55.7477L39.797 54.3714C39.9222 53.6207 40.4228 52.3696 40.8921 51.6502C41.862 50.1801 41.862 49.054 40.9234 49.054C40.3915 49.054 38.5143 51.0559 37.3254 52.9013C37.0125 53.3705 36.6996 53.6833 36.6058 53.6207C36.3868 53.3705 37.4818 50.2114 38.0137 49.6171C38.4517 49.1166 38.4517 49.054 37.9824 48.8664C37.7008 48.7725 37.2941 48.7413 37.0751 48.8351C36.6371 48.9915 35.2917 52.5885 35.2917 53.5582C35.2917 54.215 33.1955 57.1865 32.7262 57.1865C32.2882 57.1865 32.7262 53.9335 33.3206 52.6198C33.6022 52.0568 33.7274 51.4 33.6335 51.1184C33.4145 50.5554 32.3195 50.4303 32.0066 50.9308C31.6937 51.4312 31.3496 51.2748 30.9741 50.4616C30.5048 49.4607 29.3785 49.4294 28.346 50.399C27.9393 50.7744 26.813 52.4322 25.8431 54.0899C23.8407 57.468 21.5255 60.2206 20.9623 59.8765C20.4617 59.5637 20.493 56.4984 21.0249 54.5278C21.2752 53.5582 22.3389 51.6189 23.7781 49.5232C27.5326 44.0494 28.346 41.985 27.3448 40.4524C26.813 39.6704 26.3436 39.4827 25.7179 39.9206ZM26.8442 41.3907C26.8442 42.2665 25.2486 45.7698 23.872 47.9593C23.1211 49.1479 22.4641 50.055 22.4641 49.9298C22.4328 49.0853 25.2173 42.2978 25.9682 41.2969C26.4062 40.7964 26.8442 40.8277 26.8442 41.3907ZM17.1453 49.3981C17.1453 49.9611 16.9888 50.9308 16.7698 51.5876C16.4883 52.5573 16.2692 52.8075 15.7061 52.8075C15.2994 52.8075 14.8926 52.6511 14.7988 52.4634C14.4546 51.9317 14.9239 50.1175 15.6122 49.2417C16.4883 48.1157 17.1453 48.1782 17.1453 49.3981ZM49.058 49.2417C49.058 49.6796 48.9015 50.6493 48.7138 51.4312C48.4322 52.5573 48.2445 52.8075 47.6188 52.8075C46.6802 52.8075 46.4612 52.3696 46.6802 51.0872C47.0869 49.054 49.058 47.4588 49.058 49.2417ZM30.7238 51.5876C30.849 52.2132 30.63 52.8075 29.6288 54.1838C28.3147 56.0292 27.7828 56.342 27.7828 55.3098C27.7828 54.4027 28.9092 51.5876 29.5349 50.8995C30.1607 50.2114 30.4422 50.399 30.7238 51.5876ZM14.3295 52.4947C14.6736 52.8388 15.1742 53.1203 15.4245 53.1203C16.238 53.1203 15.9564 53.9961 14.7049 55.3098C13.2657 56.7799 12.1394 56.9989 12.1394 55.7477C12.1394 55.0283 13.297 51.8691 13.5786 51.8691C13.6411 51.8691 13.9853 52.1506 14.3295 52.4947ZM46.2422 52.4947C46.5863 52.8388 47.0869 53.1203 47.3372 53.1203C47.9317 53.1203 47.9317 53.2454 47.3372 54.3714C46.336 56.342 44.0521 57.2804 44.0521 55.7477C44.0521 55.0283 45.2097 51.8691 45.4913 51.8691C45.5538 51.8691 45.898 52.1506 46.2422 52.4947Z" fill="white"/>
<path d="M6.78939 42.141C5.78821 42.7666 5.16247 43.486 4.66188 44.487C3.81713 46.3011 3.94228 47.1144 5.60049 51.1181C7.10226 54.6839 7.16484 55.8412 5.85079 57.3113C4.78703 58.5312 3.06625 59.0942 2.28407 58.4373C1.65833 57.9369 1.68962 56.2791 2.31536 54.6839C2.90981 53.1825 2.72209 52.7759 1.78348 53.6204C0.782297 54.5275 0.532001 55.1843 0.438141 57.0923C0.375567 59.188 0.907445 59.6885 3.12882 59.6885C7.60285 59.6885 10.1684 55.8412 8.10345 52.3067C7.2587 50.8991 6.19494 47.6774 6.19494 46.5514C6.19494 44.2367 10.1058 41.2652 11.4512 42.579C11.8892 43.0481 11.8892 43.2045 11.3573 44.3618C11.0444 45.05 10.7003 45.613 10.5751 45.613C10.45 45.613 10.1997 45.9571 10.012 46.395C9.35493 47.8338 10.5751 47.1144 12.1395 45.1438C13.3909 43.5799 13.3597 42.6415 12.0769 41.8595C10.5438 40.9212 8.51018 41.0463 6.78939 42.141Z" fill="white"/>
<path d="M104.405 41.6098C103.779 42.1416 102.402 44.3311 101.808 45.7387L101.339 46.8647H99.211C98.0534 46.8647 96.8645 47.0211 96.6142 47.2088C96.2701 47.4277 96.8332 47.4903 98.5853 47.4277C99.8993 47.3652 100.994 47.3964 100.994 47.4903C100.994 47.5841 100.588 48.7101 100.118 49.9926C99.3049 52.2134 99.211 52.3385 98.2098 52.4323C97.3651 52.5262 97.2087 52.4323 97.3338 52.057C97.4277 51.8067 97.6154 51.0873 97.7092 50.493C97.897 49.5234 97.8031 49.2732 96.9897 48.4599C95.832 47.2713 94.956 47.459 94.0487 49.0542C93.6732 49.6798 92.9849 50.3679 92.5469 50.5869C91.5144 51.0248 90.0439 53.6209 90.0439 54.9346C90.0439 56.2171 91.6709 57.6246 92.8285 57.3744C93.2665 57.2493 94.4867 56.2796 95.5504 55.1536C96.7394 53.8399 97.678 53.1205 98.116 53.1205C98.4914 53.1205 98.8043 53.1517 98.8043 53.183C98.8043 53.2456 98.5227 54.5906 98.1786 56.1858C97.5215 59.3762 97.678 60.4397 98.8043 60.7838C99.6803 61.0653 100.682 60.1269 102.934 56.9678L104.592 54.6531L104.686 55.6853C104.968 58.4691 106.626 58.0312 108.91 54.5593L109.692 53.3707L109.536 55.2161C109.348 57.4369 109.755 58.4379 110.85 58.4379C111.663 58.4379 112.477 57.4995 114.104 54.7157C115.637 52.1195 115.105 52.1821 113.259 54.8408C112.352 56.1232 111.476 57.1867 111.288 57.1867C110.787 57.1867 111.163 54.0588 111.82 52.6826C112.101 52.0883 112.258 51.4001 112.164 51.1186C111.945 50.5556 110.85 50.4305 110.537 50.9309C110.224 51.4314 109.88 51.275 109.504 50.4618C108.785 48.8978 107.095 49.6485 105.531 52.1821C104.78 53.402 102.997 55.6853 100.463 58.7194C99.5239 59.8454 99.2423 59.3449 99.6803 57.3118C99.8681 56.3735 99.9619 55.3725 99.8681 55.0597C99.7116 54.5906 99.7429 54.5906 100.056 54.9972C100.337 55.3725 100.369 55.31 100.212 54.5906C100.087 53.9337 100.118 53.746 100.4 53.9337C100.682 54.0901 100.713 53.9963 100.588 53.6522C100.337 52.9641 100.963 51.1812 101.401 51.4627C101.589 51.5878 101.651 51.4627 101.526 51.1499C101.432 50.8371 101.432 50.6181 101.589 50.6181C101.745 50.6181 102.183 49.8362 102.559 48.8978L103.247 47.1775H104.78C105.594 47.1775 106.376 47.0211 106.47 46.8647C106.595 46.677 106.094 46.5519 105.249 46.5519C104.467 46.5519 103.81 46.3955 103.81 46.2391C103.81 45.895 104.28 45.0818 105.625 43.0487C106.032 42.4231 106.282 41.735 106.157 41.5786C105.875 41.1094 104.968 41.1407 104.405 41.6098ZM96.6142 49.2419C96.6142 49.6798 96.4578 50.6494 96.2701 51.4314C95.9885 52.5574 95.8007 52.8077 95.175 52.8077C94.2364 52.8077 94.0174 52.3698 94.2364 51.0873C94.6431 49.0542 96.6142 47.459 96.6142 49.2419ZM109.254 51.5878C109.379 52.2134 109.16 52.8077 108.159 54.1839C106.845 56.0294 106.313 56.3422 106.313 55.31C106.313 54.4654 107.502 51.5252 108.128 50.8371C108.691 50.2115 108.973 50.3992 109.254 51.5878ZM93.7984 52.4949C94.1425 52.8389 94.6431 53.1205 94.8934 53.1205C95.7069 53.1205 95.4253 53.9963 94.1738 55.31C92.7346 56.7801 91.6083 56.999 91.6083 55.7479C91.6083 55.0285 92.7659 51.8693 93.0475 51.8693C93.1101 51.8693 93.4542 52.1508 93.7984 52.4949Z" fill="white"/>
<path d="M75.3075 42.5787C73.9935 43.4546 72.8046 45.4877 72.8985 46.6763C72.9923 47.6772 73.7745 48.2089 73.7745 47.2706C73.7745 46.426 75.5578 43.4858 76.3087 43.0792C77.4664 42.4849 77.6854 43.1418 77.0909 45.3626C76.778 46.4573 76.34 47.6146 76.121 47.99C75.902 48.3653 75.026 50.2421 74.2125 52.2126C72.5543 56.1538 72.1789 58.5935 73.2426 58.5935C73.6493 58.5935 74.0248 58.0618 74.5254 56.7793C76.34 52.369 82.5348 43.955 83.3796 44.7995C83.4734 44.8934 82.5974 46.8639 81.4085 49.2099C79.5313 52.9633 79.2497 53.714 79.2497 55.2467C79.2497 57.2798 79.938 57.8428 80.6263 56.3414C81.8465 53.6202 86.5709 47.4895 87.4156 47.4895C88.0726 47.4895 87.9475 48.0525 86.7586 50.4297C86.1954 51.6496 85.7574 52.7444 85.8513 52.8695C86.1016 53.2761 85.6635 54.4022 85.3194 54.2145C85.0378 54.0268 84.9752 54.1832 84.9126 55.059C84.8814 55.278 84.7562 55.5595 84.5685 55.6846C84.4121 55.8097 84.2869 57.0296 84.2556 58.3746C84.2556 60.6266 84.3495 60.9707 85.0065 61.6901C85.8825 62.6285 86.915 62.7223 88.0101 62.0029C89.1677 61.2522 88.9487 60.9394 87.4782 61.1271C85.4758 61.3461 85.1629 61.002 85.601 59.0627C85.82 58.1869 86.7586 55.622 87.6972 53.4012C89.5431 49.0535 89.7934 47.6146 88.7922 46.7076C88.2603 46.2384 88.0726 46.2071 87.2279 46.5512C86.1016 47.0203 84.0992 49.335 82.441 52.025C80.5325 55.0903 81.0644 53.3699 83.5986 48.0525C84.6936 45.8317 84.7249 45.5815 84.3495 44.7683C84.1305 44.2991 83.7237 43.8612 83.4422 43.7986C82.6913 43.6735 81.2208 45.0185 79.2184 47.7398C78.2485 49.0535 77.3099 50.2733 77.1535 50.461C77.0283 50.6174 77.3412 49.4914 77.8731 47.9587C79.5626 42.9854 78.3737 40.5143 75.3075 42.5787Z" fill="white"/>
<path d="M62.0422 45.8948C60.0398 47.1146 59.3202 48.9601 60.3527 50.18C60.6656 50.5553 60.5404 50.8368 59.6957 51.7126C59.1012 52.3069 58.7571 52.8074 58.9135 52.8074C59.0699 52.8074 58.9135 53.0263 58.5693 53.3078C58.2565 53.5581 58.1626 53.7145 58.3816 53.5894C58.6945 53.433 58.6945 53.5581 58.4129 54.1837C58.1939 54.6216 57.9436 54.9031 57.7872 54.8405C57.662 54.7467 57.4743 55.2471 57.3491 55.9665C57.0676 57.593 57.5682 58.1248 59.4141 58.3437C60.5091 58.4689 61.0097 58.3437 61.8858 57.7494C63.1372 56.9049 64.3574 55.2159 64.6077 54.0273C64.7016 53.4955 65.1396 53.0263 65.8592 52.6823C66.4849 52.4008 66.923 52.1192 66.8604 52.0567C66.5475 51.8065 62.3551 52.5259 62.1361 52.8699C61.698 53.5894 61.8858 53.8083 62.8244 53.6832C63.3562 53.5894 63.763 53.6519 63.763 53.8083C63.763 53.9647 63.0121 54.8405 62.0735 55.8101C60.7907 57.1239 60.1963 57.5305 59.6644 57.4366C59.0386 57.3741 58.9135 57.1864 58.9761 56.3106C59.0386 54.6841 61.041 51.9003 62.5428 51.306C64.201 50.6804 64.1071 49.8046 62.4176 49.9297C61.3852 50.0236 61.26 49.961 61.26 49.3354C61.26 48.5222 63.2624 46.5516 64.1071 46.5516C64.8267 46.5516 64.8893 47.1459 64.2323 47.9904C63.6378 48.7724 63.6378 49.0539 64.2323 49.0539C64.5139 49.0539 64.9519 48.5847 65.2335 47.9904C65.7028 46.9895 65.7028 46.8331 65.2022 46.1137C64.5764 45.1441 63.3875 45.0502 62.0422 45.8948Z" fill="white"/>
<path d="M0 57.1856C0 57.6235 0.0625739 57.7799 0.156435 57.5609C0.219009 57.3732 0.219009 56.9979 0.156435 56.779C0.0625739 56.5913 0 56.7477 0 57.1856Z" fill="white"/>
<path d="M73.4619 65.0369C73.4619 65.1932 73.6183 65.2558 73.7748 65.162C73.9625 65.0681 74.0877 64.9117 74.0877 64.8179C74.0877 64.7553 73.9625 64.6928 73.7748 64.6928C73.6183 64.6928 73.4619 64.8492 73.4619 65.0369Z" fill="white"/>
<path d="M16.5509 66.4754C16.5196 66.8821 16.895 67.4138 17.4895 67.8204C18.0527 68.2583 18.3655 68.6962 18.2717 68.9777C18.1778 69.228 18.2404 69.3218 18.3968 69.228C18.96 68.8839 18.741 68.1958 17.8649 67.5076C17.3643 67.1323 16.895 66.6006 16.7699 66.319C16.6135 65.8811 16.5509 65.9124 16.5509 66.4754Z" fill="white"/>
<path d="M21.1812 67.6019C21.1186 68.6966 21.1812 69.3848 21.3689 69.3848C21.5566 69.3848 21.6505 68.8217 21.5879 68.0398C21.4315 65.819 21.3376 65.6939 21.1812 67.6019Z" fill="white"/>
<path d="M25.8429 67.6644C25.8116 68.6028 25.8429 69.3848 25.9994 69.3848C26.1245 69.3848 26.2184 68.6028 26.2184 67.6644C26.2184 65.4436 25.9994 65.4436 25.8429 67.6644Z" fill="white"/>
<path d="M27.376 66.5697C27.4699 66.945 27.3448 67.2578 27.0319 67.3829C26.5939 67.5393 26.5939 67.6644 27.1883 68.4777C27.5325 68.9781 27.9705 69.3848 28.1582 69.3848C28.3772 69.3848 28.1895 69.0094 27.7515 68.5715C27.2509 68.0085 27.1258 67.6957 27.4073 67.6019C27.8454 67.4455 27.9079 66.382 27.5012 66.1318C27.3448 66.0067 27.2822 66.2256 27.376 66.5697Z" fill="white"/>
<path d="M31.2869 67.5073C31.6311 68.3519 32.0691 69.0713 32.2255 69.0713C32.382 69.0713 32.4758 68.9775 32.4133 68.8211C32.3507 68.6959 32.0065 68.0078 31.6624 67.2884C30.8176 65.4117 30.5048 65.5993 31.2869 67.5073Z" fill="white"/>
<path d="M35.9175 67.6644C35.9175 68.6028 36.0113 69.3848 36.1678 69.3848C36.2929 69.3848 36.3868 68.6028 36.3868 67.6644C36.3868 66.7261 36.2929 65.9441 36.1678 65.9441C36.0113 65.9441 35.9175 66.7261 35.9175 67.6644Z" fill="white"/>
<path d="M39.14 66.7566C38.6707 67.476 38.6707 67.6637 39.0774 68.3831C39.3277 68.821 39.7345 69.2589 39.9848 69.3214C40.3289 69.4466 40.2976 69.3527 39.8909 68.9461C39.2652 68.3205 39.1713 66.8817 39.7345 66.3187C39.9535 66.0997 40.016 65.9433 39.8909 65.9433C39.797 65.9433 39.4529 66.3187 39.14 66.7566Z" fill="white"/>
<path d="M41.3925 66.2565C41.4863 66.4129 41.6428 66.5693 41.7366 66.5693C41.7992 66.5693 41.8618 66.4129 41.8618 66.2565C41.8618 66.0689 41.7054 65.9438 41.5176 65.9438C41.3612 65.9438 41.2986 66.0689 41.3925 66.2565Z" fill="white"/>
<path d="M44.0522 67.6644C44.0522 68.6028 44.1461 69.3848 44.3025 69.3848C44.4277 69.3848 44.5216 68.6028 44.5216 67.6644C44.5216 66.7261 44.4277 65.9441 44.3025 65.9441C44.1461 65.9441 44.0522 66.7261 44.0522 67.6644Z" fill="white"/>
<path d="M47.3686 66.632C46.7115 67.5391 46.7428 67.9144 47.525 68.7902C48.1195 69.5097 48.1507 69.5097 47.8379 68.8528C47.3999 67.9457 47.3999 66.7884 47.8692 66.3192C48.0882 66.1003 48.1507 65.9439 48.0569 65.9439C47.9317 65.9439 47.6189 66.2567 47.3686 66.632Z" fill="white"/>
<path d="M49.6213 67.1949C49.7151 67.9456 49.59 68.665 49.3397 69.0091C48.9955 69.4157 49.0581 69.4157 49.6213 68.9465C50.4035 68.2897 50.4973 67.2887 49.9029 66.4442C49.5587 65.975 49.5274 66.0689 49.6213 67.1949Z" fill="white"/>
<path d="M52.3746 66.2254C52.0617 66.7258 52.4997 67.414 53.3445 67.7893C53.9076 68.0395 54.0954 68.321 53.9702 68.759C53.8763 69.103 53.9389 69.322 54.0954 69.1969C54.7211 68.8215 54.3456 67.8206 53.407 67.3514C52.8126 67.0073 52.4997 66.6633 52.6249 66.3818C52.8126 65.8813 52.6249 65.7875 52.3746 66.2254Z" fill="white"/>
<path d="M53.9071 66.2565C54.001 66.4129 54.1574 66.5693 54.2513 66.5693C54.3139 66.5693 54.3764 66.4129 54.3764 66.2565C54.3764 66.0689 54.22 65.9438 54.0323 65.9438C53.8759 65.9438 53.8133 66.0689 53.9071 66.2565Z" fill="white"/>
<path d="M60.2589 67.1009C60.4154 68.9464 60.5718 69.0715 60.6031 67.4137C60.6344 66.6005 60.5092 65.9436 60.3841 65.9436C60.2589 65.9436 60.1963 66.4754 60.2589 67.1009Z" fill="white"/>
<path d="M63.1998 67.2264C63.1373 68.2899 63.2937 68.7904 63.7004 69.1031C64.1697 69.4785 64.201 69.4785 63.8569 69.0719C63.6691 68.7904 63.4501 67.9458 63.3563 67.1951L63.2311 65.7876L63.1998 67.2264Z" fill="white"/>
<path d="M68.2996 67.6644C68.2996 68.6028 68.3934 69.3848 68.5499 69.3848C68.675 69.3848 68.7689 68.6028 68.7689 67.6644C68.7689 66.7261 68.675 65.9441 68.5499 65.9441C68.3934 65.9441 68.2996 66.7261 68.2996 67.6644Z" fill="white"/>
<path d="M69.9261 66.5697C70.02 66.945 69.8948 67.2578 69.5819 67.3829C69.1439 67.5393 69.1439 67.6644 69.7384 68.4777C70.0825 68.9781 70.5206 69.3848 70.7083 69.3848C70.9273 69.3848 70.7396 69.0094 70.3015 68.5715C69.801 68.0085 69.6758 67.6957 69.9574 67.6019C70.3954 67.4455 70.458 66.382 70.0512 66.1318C69.8948 66.0067 69.8322 66.2256 69.9261 66.5697Z" fill="white"/>
<path d="M73.3991 67.6644C73.3678 68.6028 73.3991 69.3848 73.5555 69.3848C73.6807 69.3848 73.7745 68.6028 73.7745 67.6644C73.7745 65.4436 73.5555 65.4436 73.3991 67.6644Z" fill="white"/>
<path d="M76.4343 67.6644C76.4343 68.6028 76.5908 69.3848 76.7472 69.3848C76.9349 69.3848 77.0288 68.6654 76.9662 67.6644C76.8098 65.4436 76.4343 65.4436 76.4343 67.6644Z" fill="white"/>
<path d="M78.6243 66.7571C78.9371 67.3514 78.9684 67.8206 78.7494 68.3836C78.4991 69.0717 78.4991 69.103 78.9371 68.7589C79.5629 68.2585 79.5316 67.0699 78.9059 66.4443C78.2175 65.7249 78.1237 65.8187 78.6243 66.7571Z" fill="white"/>
<path d="M81.8468 67.6644C81.8156 68.6028 81.8468 69.3848 82.0033 69.3848C82.1284 69.3848 82.2223 68.6028 82.2223 67.6644C82.2223 65.4436 82.0033 65.4436 81.8468 67.6644Z" fill="white"/>
<path d="M84.819 66.7566C84.3497 67.476 84.3497 67.6637 84.7564 68.3831C85.0067 68.821 85.4134 69.2589 85.6637 69.3214C86.0079 69.4466 85.9766 69.3527 85.5698 68.9461C84.9441 68.3205 84.8502 66.8817 85.4134 66.3187C85.6324 66.0997 85.695 65.9433 85.5698 65.9433C85.476 65.9433 85.1318 66.3187 84.819 66.7566Z" fill="white"/>
<path d="M87.0717 66.2565C87.1655 66.4129 87.322 66.5693 87.4158 66.5693C87.4784 66.5693 87.541 66.4129 87.541 66.2565C87.541 66.0689 87.3846 65.9438 87.1968 65.9438C87.0404 65.9438 86.9778 66.0689 87.0717 66.2565Z" fill="white"/>
<path d="M89.9185 66.6327C89.2928 67.5398 89.2928 67.9151 89.9811 68.6658C90.2627 68.9786 90.4191 69.1037 90.294 68.9473C89.9185 68.4469 90.0124 66.7265 90.4191 66.3199C90.6381 66.1009 90.7007 65.9446 90.6069 65.9446C90.4817 65.9446 90.1688 66.2573 89.9185 66.6327Z" fill="white"/>
<path d="M92.2025 66.7885C92.4215 67.4766 92.3589 68.0083 92.0461 68.6339C91.5768 69.5097 91.5768 69.5097 92.2338 68.9154C92.9847 68.2586 93.0472 67.2577 92.3902 66.3818C91.9835 65.8501 91.9522 65.8501 92.2025 66.7885Z" fill="white"/>
<path d="M94.9246 66.2254C94.6117 66.7258 95.0498 67.414 95.8945 67.7893C96.4577 68.0395 96.6454 68.321 96.5203 68.759C96.4264 69.103 96.489 69.322 96.6454 69.1969C97.2399 68.8528 96.8957 67.8206 95.9884 67.2888C95.4565 66.9761 95.1123 66.5694 95.1749 66.3505C95.3626 65.8813 95.1749 65.8187 94.9246 66.2254Z" fill="white"/>
<path d="M96.4577 66.2565C96.5515 66.4129 96.708 66.5693 96.8018 66.5693C96.8644 66.5693 96.927 66.4129 96.927 66.2565C96.927 66.0689 96.7705 65.9438 96.5828 65.9438C96.4264 65.9438 96.3638 66.0689 96.4577 66.2565Z" fill="white"/>
<path d="M16.5193 69.072C16.5193 69.2284 16.6757 69.3848 16.8634 69.3848C17.0199 69.3848 17.0825 69.2284 16.9886 69.072C16.8947 68.8843 16.7383 68.7592 16.6444 68.7592C16.5819 68.7592 16.5193 68.8843 16.5193 69.072Z" fill="white"/>
<path d="M52.1868 69.072C52.1868 69.2284 52.3432 69.3848 52.5309 69.3848C52.6874 69.3848 52.7499 69.2284 52.6561 69.072C52.5622 68.8843 52.4058 68.7592 52.3119 68.7592C52.2493 68.7592 52.1868 68.8843 52.1868 69.072Z" fill="white"/>
<path d="M94.7368 69.072C94.7368 69.2284 94.8933 69.3848 95.081 69.3848C95.2374 69.3848 95.3 69.2284 95.2061 69.072C95.1123 68.8843 94.9558 68.7592 94.862 68.7592C94.7994 68.7592 94.7368 68.8843 94.7368 69.072Z" fill="white"/>
</svg>
