<svg width="33" height="33" viewBox="0 0 33 33" fill="none" xmlns="http://www.w3.org/2000/svg">
<path d="M0.650471 26.9429C3.70572 28.8817 7.26147 29.906 10.9327 29.906C16.309 29.906 21.2356 27.8408 24.8065 24.0912C28.2234 20.5024 30.103 15.6803 30.0095 10.7867C31.3047 9.67841 32.8282 7.56229 32.8282 5.49979C32.8282 4.70917 31.9702 4.20729 31.2745 4.61017C30.0576 5.32517 28.948 5.51217 27.8067 5.19179C25.4761 2.92029 22.007 2.44179 19.0837 4.01754C16.529 5.39254 15.1086 7.90879 15.2365 10.6588C10.9203 10.1322 6.93285 7.96792 4.1526 4.60467C3.6961 4.05604 2.82985 4.12066 2.46685 4.74216C1.1276 7.03566 1.14135 9.69354 2.30597 11.8399C1.75185 11.9375 1.40947 12.4037 1.40947 12.9083C1.40947 15.0657 2.38022 17.0484 3.9436 18.4014C3.6521 18.6819 3.55585 19.0985 3.6796 19.4698C4.3671 21.535 5.9236 23.1493 7.86922 23.9578C5.7531 24.9684 3.41285 25.3053 1.32972 25.0495C0.251721 24.9038 -0.280404 26.353 0.650471 26.9429V26.9429ZM11.2146 24.3112C11.986 23.7185 11.5762 22.4838 10.6082 22.4632C8.90322 22.4274 7.35085 21.5873 6.38422 20.2659C6.85035 20.2357 7.33297 20.1642 7.79222 20.0404C8.8386 19.7572 8.7891 18.2474 7.72622 18.0343C5.7971 17.6465 4.28322 16.2413 3.71535 14.4318C4.23372 14.5597 4.76172 14.6312 5.28835 14.6408C6.33197 14.6463 6.7266 13.3084 5.87547 12.7488C3.95735 11.4852 3.13922 9.25354 3.68097 7.15529C7.03047 10.5488 11.5748 12.5934 16.3818 12.8244C17.0707 12.867 17.5877 12.2194 17.4365 11.5635C16.7833 8.73241 18.3646 6.74829 20.0627 5.83392C21.743 4.92642 24.4407 4.64317 26.5087 6.81292C27.1234 7.46054 29.1969 7.48529 30.2515 7.23916C29.7785 8.13016 29.0511 8.97579 28.3705 9.45154C28.0804 9.65504 27.914 9.99329 27.9319 10.3467C28.1532 14.8635 26.4702 19.3543 23.3146 22.6667C20.1356 26.0038 15.7397 27.8422 10.9341 27.8422C9.02285 27.8422 7.14872 27.5314 5.37772 26.9319C7.49522 26.5222 9.50685 25.6257 11.2146 24.3112V24.3112Z" fill="#BFA678"/>
</svg>
